Coordinates
version=1
nRows=26
nColumns=22
inDegrees=yes

Units are S.I. units (second, meters, Newtons, ...)
If the header above contains a line with 'inDegrees', this indicates whether rotational values are in degrees (yes) or radians (no).

endheader
time	pelvis_tilt	pelvis_list	pelvis_rotation	pelvis_tx	pelvis_ty	pelvis_tz	hip_flexion_r	hip_adduction_r	hip_rotation_r	knee_angle_r	ankle_angle_r	subtalar_angle_r	hip_flexion_l	hip_adduction_l	hip_rotation_l	knee_angle_l	ankle_angle_l	subtalar_angle_l	lumbar_extension	lumbar_bending	lumbar_rotation
      5.32000000	     -2.09775993	     -2.94374179	      2.89497106	     -0.79183351	      1.02195783	      0.12039585	     14.09435704	     -0.70629220	     -2.36858863	    -25.31579576	     12.58655612	      4.21628515	      6.05051999	     -0.11507101	     -7.15603292	    -12.61999537	     14.93911160	      7.07212316	      0.66714607	     -1.14761311	     -4.21048456
      5.33000000	     -2.10830905	     -2.88884455	      2.93616522	     -0.79236380	      1.02185553	      0.11998038	     13.93493859	     -0.79717393	     -2.37644092	    -25.18545842	     12.45317573	      4.30751604	      6.06442580	     -0.05884941	     -7.23589058	    -12.56753753	     14.91408109	      7.46367513	      0.66758867	     -1.27158143	     -4.19382485
      5.34000000	     -2.10890896	     -2.83293991	      2.98090972	     -0.79285991	      1.02175459	      0.11956685	     13.75112515	     -0.90272763	     -2.42728684	    -25.02135341	     12.32294308	      4.35345190	      6.06922873	     -0.00117442	     -7.30862256	    -12.52034919	     14.88645370	      7.82235721	      0.65468702	     -1.39338632	     -4.17334986
      5.35000000	     -2.10013086	     -2.77610965	      3.02960020	     -0.79331906	      1.02165496	      0.11913941	     13.54534473	     -1.02485726	     -2.52406866	    -24.82747149	     12.20056332	      4.36556252	      6.06470239	      0.06095074	     -7.36759288	    -12.47732428	     14.85662337	      8.13721069	      0.62975421	     -1.51029981	     -4.14889065
      5.36000000	     -2.08571367	     -2.71807646	      3.08117979	     -0.79376765	      1.02154994	      0.11872478	     13.33388362	     -1.16340314	     -2.67213378	    -24.62205552	     12.07359505	      4.36082509	      6.06534871	      0.12576877	     -7.40826108	    -12.45706631	     14.81561405	      8.36569271	      0.59604240	     -1.62902396	     -4.10740230
      5.37000000	     -2.05536338	     -2.66381447	      3.13760502	     -0.79411840	      1.02147047	      0.11830948	     13.08339024	     -1.30873032	     -2.85017458	    -24.37399466	     11.98172953	      4.32499622	      6.02604902	      0.19103773	     -7.43472727	    -12.40067611	     14.79409199	      8.61491236	      0.55542370	     -1.73691168	     -4.08384358
      5.38000000	     -2.02749388	     -2.60976524	      3.19129095	     -0.79446012	      1.02137808	      0.11790381	     12.84029832	     -1.46806878	     -3.06570421	    -24.11853145	     11.87359832	      4.28612368	      6.00029865	      0.25930278	     -7.44767555	    -12.36776408	     14.76259034	      8.77255456	      0.51690627	     -1.84251391	     -4.03406355
      5.39000000	     -1.99992992	     -2.55708581	      3.23565886	     -0.79477252	      1.02128299	      0.11753764	     12.60030293	     -1.63550219	     -3.30572243	    -23.85120000	     11.75464147	      4.24967022	      5.98109516	      0.32694408	     -7.45280794	    -12.35312717	     14.73221421	      8.86566556	      0.48212194	     -1.94693709	     -3.96550872
      5.40000000	     -1.95584073	     -2.51576533	      3.27263900	     -0.79497398	      1.02122803	      0.11721944	     12.32484588	     -1.79367738	     -3.55425588	    -23.54115308	     11.65527674	      4.18365781	      5.91923880	      0.38402267	     -7.43794546	    -12.30234871	     14.71298125	      8.94523408	      0.44673939	     -2.03741795	     -3.89747344
      5.41000000	     -1.91735069	     -2.47958652	      3.30048519	     -0.79515066	      1.02117178	      0.11695596	     12.06035952	     -1.94912573	     -3.80251490	    -23.22058522	     11.53426880	      4.12973628	      5.87376430	      0.43424724	     -7.42739936	    -12.27503983	     14.69614968	      8.97866675	      0.42070306	     -2.12441755	     -3.80262216
      5.42000000	     -1.88786112	     -2.45094113	      3.31243025	     -0.79530221	      1.02111081	      0.11676831	     11.81641985	     -2.09701828	     -4.03937962	    -22.89652656	     11.39726407	      4.10252724	      5.84835572	      0.47240166	     -7.42490928	    -12.27341725	     14.68561534	      8.98213010	      0.41049022	     -2.20700275	     -3.68532754
      5.43000000	     -1.83915651	     -2.44095897	      3.31697161	     -0.79533640	      1.02110753	      0.11664619	     11.53426990	     -2.21782056	     -4.25969773	    -22.52838851	     11.29013756	      4.06911277	      5.77744063	      0.49011522	     -7.40543230	    -12.23387232	     14.68052375	      8.96654449	      0.39705871	     -2.27019811	     -3.57408206
      5.44000000	     -1.80411464	     -2.43849602	      3.30643489	     -0.79535345	      1.02109754	      0.11660582	     11.28177514	     -2.32572252	     -4.45960902	    -22.16241967	     11.16501606	      4.08251171	      5.73360118	      0.49541437	     -7.39979553	    -12.22201439	     14.67981400	      8.93356674	      0.40219814	     -2.33005439	     -3.44354420
      5.45000000	     -1.77918658	     -2.44501522	      3.28313710	     -0.79534492	      1.02108929	      0.11664739	     11.05190638	     -2.41727122	     -4.63944317	    -21.79389529	     11.02422705	      4.13695158	      5.70781121	      0.48691864	     -7.39938290	    -12.22813229	     14.68226058	      8.89371787	      0.42260431	     -2.38544311	     -3.30191529
      5.46000000	     -1.74752035	     -2.46841361	      3.25098851	     -0.79527436	      1.02111745	      0.11676197	     10.81290922	     -2.47903111	     -4.79260466	    -21.40233112	     10.89257017	      4.23199811	      5.66553691	      0.45815316	     -7.39351290	    -12.22199778	     14.68867795	      8.83630169	      0.44320267	     -2.42365957	     -3.16377919
      5.47000000	     -1.71375168	     -2.50453767	      3.20978004	     -0.79516613	      1.02116599	      0.11695480	     10.57662539	     -2.51432751	     -4.91718270	    -21.00066727	     10.76374178	      4.37374633	      5.62072573	      0.41260032	     -7.38317687	    -12.21954794	     14.69464702	      8.75874038	      0.46384090	     -2.45156905	     -3.02091048
      5.48000000	     -1.68780766	     -2.55005368	      3.16080468	     -0.79501750	      1.02122141	      0.11723015	     10.35573595	     -2.52603306	     -5.01670743	    -20.59622302	     10.62366804	      4.54819657	      5.58256089	      0.35395067	     -7.37377601	    -12.21818054	     14.69982111	      8.66745086	      0.49617993	     -2.47466106	     -2.88084861
      5.49000000	     -1.64452624	     -2.60643066	      3.10844809	     -0.79480509	      1.02131157	      0.11756984	     10.11771897	     -2.51237371	     -5.09925312	    -20.18934108	     10.52132294	      4.80169971	      5.51965740	      0.28039322	     -7.36241152	    -12.21151069	     14.70844311	      8.52160079	      0.51393765	     -2.48562434	     -2.75142720
      5.50000000	     -1.63428612	     -2.67026768	      3.04924979	     -0.79461409	      1.02137285	      0.11799699	      9.93289114	     -2.47542808	     -5.15415673	    -19.79983306	     10.33171048	      4.99767242	      5.50526284	      0.19594485	     -7.33687439	    -12.22836697	     14.69514209	      8.41705140	      0.56144960	     -2.49752088	     -2.61290871
      5.51000000	     -1.61265639	     -2.74362991	      2.99047975	     -0.79437909	      1.02145250	      0.11846751	      9.73444265	     -2.41420246	     -5.19846912	    -19.41017039	     10.17091246	      5.22857808	      5.47266507	      0.09847538	     -7.31908584	    -12.23600822	     14.69201871	      8.27420517	      0.59430109	     -2.49444813	     -2.49567326
      5.52000000	     -1.59806637	     -2.81308121	      2.93756110	     -0.79411006	      1.02152547	      0.11900079	      9.55178843	     -2.34243523	     -5.23198387	    -19.04571205	     10.01328466	      5.43855192	      5.44610353	      0.00157413	     -7.29999856	    -12.24377055	     14.67548636	      8.12832384	      0.63695431	     -2.50741504	     -2.38746535
      5.53000000	     -1.59010335	     -2.87802934	      2.87986556	     -0.79384665	      1.02158480	      0.11955611	      9.38367996	     -2.26369589	     -5.25401637	    -18.69863175	      9.85424802	      5.61721917	      5.42417729	     -0.09116688	     -7.28406354	    -12.24737777	     14.64895138	      7.98223682	      0.67693318	     -2.51715082	     -2.29234617
      5.54000000	     -1.58480021	     -2.93591501	      2.82950110	     -0.79355717	      1.02163842	      0.12015550	      9.22446804	     -2.17826718	     -5.26531074	    -18.38011490	      9.70678309	      5.75741566	      5.39861139	     -0.18002381	     -7.27760030	    -12.23997138	     14.61343007	      7.83227952	      0.71647654	     -2.54337621	     -2.20684589
      5.55000000	     -1.58456335	     -2.98217006	      2.77977692	     -0.79327192	      1.02167828	      0.12077440	      9.08011569	     -2.09397085	     -5.26267686	    -18.09264696	      9.56787411	      5.84198358	      5.37180180	     -0.25835297	     -7.27952876	    -12.21999516	     14.56533025	      7.68964879	      0.75133696	     -2.58130085	     -2.13091836
      5.56000000	     -1.58716363	     -3.01676268	      2.72884785	     -0.79297977	      1.02170845	      0.12141320	      8.94682340	     -2.01130218	     -5.24588688	    -17.83528881	      9.44085824	      5.86313043	      5.34086486	     -0.32583068	     -7.29129503	    -12.18849620	     14.50704484	      7.55815778	      0.78292011	     -2.63132683	     -2.06517140
      5.57000000	     -1.59027640	     -3.04229983	      2.67977538	     -0.79269854	      1.02173423	      0.12206489	      8.82419848	     -1.92941366	     -5.21517451	    -17.60655326	      9.32399840	      5.82096524	      5.30597219	     -0.38535893	     -7.31065359	    -12.14755710	     14.43800449	      7.43825233	      0.80312367	     -2.69017482	     -2.00490494
